<svg width="49" height="38" viewBox="0 0 49 38" fill="none" xmlns="http://www.w3.org/2000/svg">
<path d="M27.5084 25.9585C19.1912 23.0394 13.4047 16.5472 13.4047 9.00684C13.4047 5.98161 14.3371 3.1253 15.9895 0.600525C7.05714 3.47606 0.774231 10.3048 0.774231 18.2725C0.774231 28.8361 11.8167 37.3995 25.438 37.3995C35.7124 37.3995 44.5179 32.5271 48.2259 25.5998C44.97 26.8814 41.287 27.6043 37.3858 27.6043C34.7842 27.6043 32.279 27.283 29.9333 26.6888" fill="#3A5D74"/>
<g opacity="0.2">
<path d="M27.3475 36.1587C13.7263 36.1587 2.6838 27.5954 2.6838 17.0317C2.6838 11.4874 5.72677 6.49506 10.5871 3.00195C4.62676 6.49305 0.774231 12.0335 0.774231 18.2725C0.774231 28.8361 11.8167 37.3995 25.438 37.3995C31.911 37.3995 37.8003 35.4652 42.1998 32.3019C38.0685 34.7225 32.9246 36.1587 27.3475 36.1587Z" fill="#231F20"/>
</g>
<path d="M25.4379 38.0002C18.6433 38.0002 12.2553 35.9482 7.45058 32.2222C2.6459 28.4963 0 23.5422 0 18.2729C0 14.2968 1.51871 10.4643 4.3921 7.18952C7.1964 3.99358 11.1041 1.52358 15.6928 0.0464072C15.9919 -0.050003 16.3372 0.00848144 16.5575 0.192915C16.7778 0.377274 16.8266 0.648544 16.6799 0.872685C15.0203 3.40837 14.1789 6.14519 14.1789 9.00721C14.1789 16.0627 19.5364 22.5018 27.8277 25.4119C28.2172 25.5486 28.39 25.9044 28.2138 26.2064C28.0376 26.5085 27.5792 26.6426 27.1892 26.5059C22.9098 25.0039 19.2796 22.5972 16.6909 19.546C14.0346 16.4151 12.6305 12.7708 12.6305 9.00721C12.6305 6.51123 13.2306 4.10439 14.4176 1.83055C6.53633 5.00133 1.54838 11.2933 1.54838 18.2729C1.54838 28.4885 12.2652 36.7995 25.4379 36.7995C34.4381 36.7995 42.5514 32.9312 46.6402 26.8192C43.7084 27.7395 40.6043 28.205 37.3858 28.205C34.7571 28.205 32.1688 27.887 29.6929 27.2598C29.2863 27.1568 29.0647 26.8178 29.1974 26.5026C29.33 26.1875 29.7663 26.0153 30.1737 26.1183C32.4942 26.7062 34.9207 27.0042 37.3858 27.0042C41.0765 27.0042 44.6058 26.3516 47.8754 25.0647C48.1643 24.9509 48.5141 24.9888 48.7519 25.1596C48.9897 25.3304 49.065 25.5981 48.9408 25.8302C47.0361 29.3887 43.8508 32.4192 39.7298 34.594C35.5071 36.8224 30.5651 38.0002 25.4379 38.0002Z" fill="#231F20"/>
</svg>
